Language.....: English -(GREETZ TO THE GREATZ:
[b][color=#FF0000] 
http://www.seedboxworld.com( for your cheap fast seedbox needs )


BadGirl2k9  	 	 	
UnDeaD 
algpz500 			
virusofsaten 	 		
WICCYWOLF	
FoxyB 			 		
Joker321[/color][/b]
 
http://www.imdb.com/title/tt1020558/


Centurion.2010.CAM..X264.SDTeam

A splinter group of Roman soldiers fight for their lives behind enemy lines after their
                     legion is decimated in a devastating guerrilla attack


Format                           : Matroska
File size                        : 437 MiB
Duration                         : 1h 37mn
Overall bit rate                 : 628 Kbps

Video
ID                               : 1
Format                           : AVC
Format/Info                      : Advanced Video Codec
Format profile                   : High@L3.0
Format settings, CABAC           : Yes
Format settings, ReFrames        : 4 frames
Muxing mode                      : Container profile=Unknown@3.0
Codec ID                         : V_MPEG4/ISO/AVC
Duration                         : 1h 37mn
Bit rate                         : 487 Kbps
Nominal bit rate                 : 500 Kbps
Width                            : 720 pixels
Height                           : 320 pixels
Display aspect ratio             : 2.25:1
Frame rate mode                  : Variable
Frame rate                       : 23.976 fps
Resolution                       : 8 bits
Colorimetry                      : 4:2:0
Scan type                        : Progressive
Bits/(Pixel*Frame)               : 0.088
Stream size                      : 339 MiB (78%)
Writing library                  : x264 core 104 r1677 19df41a
Audio
ID                               : 2
Format                           : MPEG Audio
Format version                   : Version 1
Format profile                   : Layer 3
Codec ID                         : A_MPEG/L3
Codec ID/Hint                    : MP3
Duration                         : 1h 37mn
Bit rate mode                    : Constant
Bit rate                         : 128 Kbps
Channel(s)                       : 2 channels
Sampling rate                    : 48.0 KHz
Stream size                      : 89.0 MiB (20%)